<?xml version="1.0" encoding="utf-8"?>
<!-- Generator: Adobe Illustrator 19.0.1, SVG Export Plug-In . SVG Version: 6.00 Build 0)  -->
<svg version="1.1" id="Layer_1" xmlns="http://www.w3.org/2000/svg" xmlns:xlink="http://www.w3.org/1999/xlink" x="0px" y="0px"
	 viewBox="0 0 100 100" enable-background="new 0 0 100 100" xml:space="preserve">
<g>
	<path fill="#FFFFFF" d="M50,5C25.2,5,5,25.2,5,50s20.2,45,45,45s45-20.2,45-45S74.8,5,50,5z M50,92.1C26.8,92.1,7.9,73.2,7.9,50
		S26.8,7.9,50,7.9S92.1,26.8,92.1,50S73.2,92.1,50,92.1z"/>
	<path fill="#FFFFFF" d="M50,49.4V29.2c0-0.8-0.7-1.5-1.5-1.5S47,28.4,47,29.2V50c0,0.4,0.2,0.8,0.5,1.1l22.3,20.8
		c0.3,0.3,0.6,0.4,1,0.4c0.4,0,0.8-0.2,1.1-0.5c0.5-0.6,0.5-1.5,0-2.1L50,49.4z"/>
</g>
</svg>
