<?xml version="1.0" encoding="utf-8"?>
<!-- Generator: Adobe Illustrator 19.0.1, SVG Export Plug-In . SVG Version: 6.00 Build 0)  -->
<svg version="1.1" id="Layer_1" xmlns="http://www.w3.org/2000/svg" xmlns:xlink="http://www.w3.org/1999/xlink" x="0px" y="0px"
	 viewBox="0 0 100 100" enable-background="new 0 0 100 100" xml:space="preserve">
<path fill="#FFFFFF" d="M55.7,50l37.2-37.2c1.6-1.6,1.6-4.1,0-5.7c-1.6-1.6-4.1-1.6-5.7,0L50,44.3L12.8,7.2c-1.6-1.6-4.1-1.6-5.7,0
	c-1.6,1.6-1.6,4.1,0,5.7L44.3,50L7.2,87.2c-1.6,1.6-1.6,4.1,0,5.7C8,93.6,9,94,10,94s2-0.4,2.8-1.2L50,55.7l37.2,37.2
	C88,93.6,89,94,90,94s2-0.4,2.8-1.2c1.6-1.6,1.6-4.1,0-5.7L55.7,50z"/>
</svg>
