<?xml version="1.0" encoding="utf-8"?>
<!-- Generator: Adobe Illustrator 19.0.1, SVG Export Plug-In . SVG Version: 6.00 Build 0)  -->
<svg version="1.1" id="Layer_1" xmlns="http://www.w3.org/2000/svg" xmlns:xlink="http://www.w3.org/1999/xlink" x="0px" y="0px"
	 viewBox="0 0 100 100" enable-background="new 0 0 100 100" xml:space="preserve">
<g>
	<g>
		<path fill="#FFFFFF" d="M87.5,79.9H12.5c-4,0-7.5-3.5-7.5-7.5V27.2c0-3.9,3.2-7.1,7.1-7.1h75.7c3.9,0,7.1,3.2,7.1,7.1v45.3
			C95,76.5,91.5,79.9,87.5,79.9z M12.1,23c-2.3,0-4.2,1.9-4.2,4.2v45.3c0,2.3,2.2,4.6,4.6,4.6h75.1c2.3,0,4.6-2.2,4.6-4.6V27.2
			c0-2.3-1.9-4.2-4.2-4.2H12.1z"/>
	</g>
	<g>
		<path fill="#FFFFFF" d="M81.5,49.9h-15c-0.8,0-1.5-0.6-1.5-1.5v-15c0-0.8,0.7-1.5,1.5-1.5h15c0.8,0,1.5,0.6,1.5,1.5v15
			C83,49.3,82.3,49.9,81.5,49.9z M68,47h12.1V34.9H68V47z"/>
	</g>
	<g>
		<path fill="#FFFFFF" d="M29,37.9h-7.5c-0.8,0-1.5-0.6-1.5-1.5s0.7-1.5,1.5-1.5H29c0.8,0,1.5,0.6,1.5,1.5S29.8,37.9,29,37.9z"/>
	</g>
	<g>
		<path fill="#FFFFFF" d="M54.5,58.9h-33c-0.8,0-1.5-0.6-1.5-1.5s0.7-1.5,1.5-1.5h33c0.8,0,1.5,0.6,1.5,1.5S55.3,58.9,54.5,58.9z"/>
	</g>
	<g>
		<path fill="#FFFFFF" d="M66.5,67.9H21.5c-0.8,0-1.5-0.6-1.5-1.5c0-0.8,0.7-1.5,1.5-1.5h45.1c0.8,0,1.5,0.6,1.5,1.5
			C68,67.3,67.3,67.9,66.5,67.9z"/>
	</g>
</g>
</svg>
