<?xml version="1.0" encoding="utf-8"?>
<!-- Generator: Adobe Illustrator 19.0.1, SVG Export Plug-In . SVG Version: 6.00 Build 0)  -->
<svg version="1.1" id="Layer_1" xmlns="http://www.w3.org/2000/svg" xmlns:xlink="http://www.w3.org/1999/xlink" x="0px" y="0px"
	 viewBox="0 0 100 100" enable-background="new 0 0 100 100" xml:space="preserve">
<path fill="#FFFFFF" d="M50,5C25.2,5,5,25.2,5,50s20.2,45,45,45s45-20.2,45-45S74.8,5,50,5z M80.6,21.1c-0.6,2.2-2.7,9.2-8.1,12.2
	c-6.6-1.4-12.9,2.2-14.3,3.9c-0.7,0.9-0.5,1.6-0.4,2c0.2,0.5,0.8,0.9,1.4,0.9c0.7,0.6,1.9,3.5,2.6,6.5l0.1,0.4l0.3,0.3
	c1.8,1.8,4.6,1.3,6.2,0.8c0.8,2.2-2.2,5.7-5.5,9c-2.1,2.2-3,3.2-3,4.3c0,1.4,1,2.3,1.8,3c0.3,0.3,0.9,0.8,1,1c0,0,0,0.2-0.5,0.7
	c-2.5,2.5-5.1,3.4-5.1,3.4l-1,0.3v1c0,3.6-1.7,8-9.8,8c-1.3-0.7-4.3-6.6-4.3-8c0-0.6,0.4-1.4,0.8-2.2c0.5-1,1.1-2.2,1.1-3.5
	c0-2.1-2.5-5-3.8-6.3c-0.1-2.3-0.7-4-1.9-5.1c-2-1.9-5-1.7-8.1-1.5c-0.9,0.1-1.9,0.1-2.8,0.1c-4.1,0-4.2-5.9-4.2-6.1
	c0-0.1,0.1-12.1,8.3-13.7c5-1,6.8-0.3,7.3,0.1c0.3,0.2,0.3,0.3,0.4,0.4L39,33.5l0.5,0.5c3.2,3.2,8.2,2.1,12.2,1.2
	c1.5-0.4,3-0.6,3.9-0.6h1.3l0.2-1.3c0.6-4,1.2-11-1.2-12.8c-0.5-0.3-1.4-0.8-2.8-0.1c-1.5,0.8-2.9,0.9-3.9,0.3
	c-1.1-0.6-1.5-1.9-1.6-2.9c-0.3-3.1,8.6-6.5,15-7.8C69.6,12,75.7,16,80.6,21.1z M50,92.1C26.8,92.1,7.9,73.2,7.9,50S26.8,7.9,50,7.9
	c2.3,0,4.5,0.2,6.7,0.5c-5.4,1.7-12.3,4.8-11.9,9.5c0.2,2.4,1.3,4.2,3,5.2c1.8,1,4.1,0.9,6.5-0.2c0.5,1.1,0.5,4.8,0.1,8.6
	c-1,0.1-2.1,0.4-3.3,0.7c-3.3,0.8-7.1,1.6-9.2-0.1c-0.2-0.5-0.5-1.2-1.2-1.8c-1.8-1.5-5.1-1.8-9.9-0.8c-10.5,2.1-10.6,16-10.6,16.6
	c0,3.1,1.5,9,7.1,9c1,0,2-0.1,3-0.1c2.5-0.1,4.6-0.3,5.7,0.7c0.7,0.6,0.8,1.8,0.8,3.6v0.6l0.7,0.4c1.8,1.8,3.5,4,3.5,4.7
	c0,0.6-0.3,1.4-0.7,2.2c-0.5,1-1.1,2.2-1.1,3.5c0,2.1,3.9,10.9,7.1,10.9c7.7,0,12.4-3.6,12.8-9.9c1.2-0.5,3.2-1.7,5.3-3.7
	c0.9-0.9,1.4-1.9,1.3-2.8c-0.1-1.4-1.1-2.4-2-3.1c-0.2-0.2-0.6-0.5-0.8-0.7c0.4-0.5,1.3-1.5,2.2-2.4c3.4-3.6,9.2-9.6,4.9-13.9
	l-0.7-0.7l-0.9,0.5c-0.9,0.4-2.8,1-3.7,0.5c-0.9-3.5-1.9-5.9-3.1-7.1c2-1.3,6.5-3.1,10.9-2l0.5,0.1l0.5-0.2
	c5.6-2.8,8.3-8.8,9.5-12.4c5.8,7.2,9.2,16.3,9.2,26.3C92.1,73.2,73.2,92.1,50,92.1z"/>
</svg>
