<?xml version="1.0" encoding="utf-8"?>
<!-- Generator: Adobe Illustrator 19.0.1, SVG Export Plug-In . SVG Version: 6.00 Build 0)  -->
<svg version="1.1" id="Layer_1" xmlns="http://www.w3.org/2000/svg" xmlns:xlink="http://www.w3.org/1999/xlink" x="0px" y="0px"
	 viewBox="0 0 100 100" enable-background="new 0 0 100 100" xml:space="preserve">
<g>
	<g opacity="0.9">
		<g>
			<path fill="#FFFFFF" d="M90,30.4H10c-2.5,0-4.4-2-4.4-4.4s2-4.4,4.4-4.4h80c2.5,0,4.4,2,4.4,4.4S92.5,30.4,90,30.4z"/>
		</g>
		<g>
			<path fill="#FFFFFF" d="M90,54.4H10c-2.5,0-4.4-2-4.4-4.4s2-4.4,4.4-4.4h80c2.5,0,4.4,2,4.4,4.4S92.5,54.4,90,54.4z"/>
		</g>
		<g>
			<path fill="#FFFFFF" d="M90,78.4H10c-2.5,0-4.4-2-4.4-4.4s2-4.4,4.4-4.4h80c2.5,0,4.4,2,4.4,4.4S92.5,78.4,90,78.4z"/>
		</g>
	</g>
</g>
</svg>
