<?xml version="1.0" encoding="utf-8"?>
<!-- Generator: Adobe Illustrator 19.0.1, SVG Export Plug-In . SVG Version: 6.00 Build 0)  -->
<svg version="1.1" id="Layer_1" xmlns="http://www.w3.org/2000/svg" xmlns:xlink="http://www.w3.org/1999/xlink" x="0px" y="0px"
	 viewBox="0 0 100 100" enable-background="new 0 0 100 100" xml:space="preserve">
<g>
	<path fill="#FFFFFF" d="M81.5,53c-0.8,0-1.5,0.6-1.5,1.5V89H62V63.5c0-0.8-0.7-1.5-1.5-1.5h-21c-0.8,0-1.5,0.7-1.5,1.5V89H20V54.5
		c0-0.8-0.7-1.5-1.5-1.5S17,53.7,17,54.5v36c0,0.8,0.7,1.5,1.5,1.5h21c0.8,0,1.5-0.7,1.5-1.5V65h18v25.5c0,0.8,0.7,1.5,1.5,1.5h21
		c0.8,0,1.5-0.7,1.5-1.5v-36C83,53.7,82.3,53,81.5,53z"/>
	<path fill="#FFFFFF" d="M94.6,52L51,8.4c-0.6-0.6-1.5-0.6-2.1,0L5.4,52c-0.6,0.6-0.6,1.5,0,2.1c0.6,0.6,1.5,0.6,2.1,0L50,11.5
		L92.5,54c0.3,0.3,0.7,0.4,1,0.4s0.7-0.1,1-0.4C95.1,53.5,95.1,52.5,94.6,52z"/>
	<path fill="#FFFFFF" d="M63.5,14H77v13.5c0,0.8,0.7,1.5,1.5,1.5s1.5-0.6,1.5-1.5v-15c0-0.8-0.7-1.5-1.5-1.5h-15
		c-0.8,0-1.5,0.7-1.5,1.5S62.7,14,63.5,14z"/>
</g>
</svg>
