<?xml version="1.0" encoding="utf-8"?>
<!-- Generator: Adobe Illustrator 19.0.1, SVG Export Plug-In . SVG Version: 6.00 Build 0)  -->
<svg version="1.1" id="Layer_1" xmlns="http://www.w3.org/2000/svg" xmlns:xlink="http://www.w3.org/1999/xlink" x="0px" y="0px"
	 viewBox="0 0 100 100" enable-background="new 0 0 100 100" xml:space="preserve">
<path fill="#FFFFFF" d="M91.9,70.2l-9.7-9.7c-2-2-4.7-3.1-7.5-3.1c-2.8,0-5.5,1.1-7.5,3.1l-2.3,2.3C54.9,54.6,45.4,45,37.2,35.1
	l2.3-2.3c4.1-4.1,4.1-10.9,0-15l-9.7-9.7c-4.1-4.1-10.9-4.1-15,0l-5.3,5.3c-5.1,5.1-5.9,13.1-1.9,19.1
	c15.6,23.6,36.3,44.3,59.9,59.9c2.6,1.7,5.5,2.5,8.4,2.5c3.9,0,7.8-1.5,10.7-4.4l5.3-5.3C96,81.1,96,74.4,91.9,70.2z M89.9,83.2
	l-5.3,5.3c-4.1,4.1-10.6,4.8-15.5,1.5C45.8,74.7,25.3,54.2,9.9,30.9c-3.2-4.9-2.6-11.4,1.5-15.5l5.3-5.3c1.5-1.5,3.5-2.3,5.5-2.3
	s3.9,0.8,5.4,2.3l9.7,9.7c3,3,3,7.9,0,10.9l-4.2,4.2l0.8,1c8.8,10.8,19.2,21.1,30,30l1,0.8l4.2-4.2c1.5-1.5,3.4-2.3,5.5-2.3
	c2.1,0,4,0.8,5.4,2.3l9.7,9.7C92.9,75.3,92.9,80.2,89.9,83.2z"/>
</svg>
