<?xml version="1.0" encoding="utf-8"?>
<!-- Generator: Adobe Illustrator 19.0.1, SVG Export Plug-In . SVG Version: 6.00 Build 0)  -->
<svg version="1.1" id="Layer_1" xmlns="http://www.w3.org/2000/svg" xmlns:xlink="http://www.w3.org/1999/xlink" x="0px" y="0px"
	 viewBox="0 0 100 100" enable-background="new 0 0 100 100" xml:space="preserve">
<path fill="#FFFFFF" d="M92.8,87.2L62.6,56.9c4.1-5.3,6.6-12,6.6-19.3C69.2,20.2,55,6,37.6,6S6,20.2,6,37.6
	C6,55,20.2,69.2,37.6,69.2c7.3,0,14-2.5,19.3-6.6l30.3,30.3C88,93.6,89,94,90,94s2-0.4,2.8-1.2C94.4,91.3,94.4,88.7,92.8,87.2z
	 M14,37.6C14,24.6,24.6,14,37.6,14c13,0,23.6,10.6,23.6,23.6S50.6,61.2,37.6,61.2C24.6,61.2,14,50.6,14,37.6z"/>
</svg>
